<svg viewBox="0 0 32 32" xmlns="http://www.w3.org/2000/svg" fill="currentColor"><path d="M14.902816 1 15 7.2l-4.777224-3.491473L9.001744 5.97501l5.458013 3.04207L9 12.043074l1.222776 2.248399L15 10.8l-.097184 6.2h2.194368L17 10.8l4.777224 3.491474L23 12.043075l-5.459756-3.058144L23 5.97501l-1.222776-2.266483L17 7.2l.097184-6.2ZM23.902816 15 24 21.2l-4.777224-3.491473-1.221032 2.266483 5.458013 3.042069L18 26.043075l1.222776 2.248399L24 24.8l-.097184 6.2h2.194368L26 24.8l4.777224 3.491474L32 26.043075l-5.459756-3.058144L32 19.97501l-1.222776-2.266483L26 21.2l.097184-6.2ZM5.902816 15 6 21.2l-4.777224-3.491473L.001744 19.97501l5.458013 3.042069L0 26.043075l1.222776 2.248399L6 24.8 5.902816 31h2.194368L8 24.8l4.777224 3.491474L14 26.043075l-5.459756-3.058144L14 19.97501l-1.222776-2.266483L8 21.2l.097184-6.2Z"/></svg>