<svg
	xmlns="http://www.w3.org/2000/svg"
	viewBox="0 0 120 120"
	xml:space="preserve"
	width="32"
	height="32"
>
	<path
		d="m36.92 100 17.738 17.736A7.73 7.73 0 0 0 60.123 120a7.73 7.73 0 0 0 5.465-2.264L83.324 100H36.92z"
		style="fill:#c56ad4;fill-opacity:1"
	/><path
		d="m16.92 80 20 20h46.404l19.998-20-37.614-1.763c6.936 5.074 3.702 16.334-5.16 16.576-8.094.22-12.134-8.85-7.531-14.813Z"
		style="fill:#83a8ff;fill-opacity:1"
	/><path
		d="M.023 60a7.733 7.733 0 0 0 2.24 5.346L16.92 80h36.062c1.038-1.301 2.203-2.231 3.805-2.898V60zm64.323 0v17.371A9.218 9.218 0 0 1 67.56 80h35.762l14.412-14.414A7.73 7.73 0 0 0 120 60.119a4.751 4.751 0 0 0-.008-.119H94.426a9.195 9.195 0 0 1-2.666 7.133c-6.014 5.95-16.193 1.309-15.645-7.133Z"
		style="fill:#69cb86;fill-opacity:1"
	/><path
		d="M16.676 40 2.264 54.412A7.733 7.733 0 0 0 0 59.88 7.733 7.733 0 0 0 .023 60h56.764V44.156A9.195 9.195 0 0 1 52.248 40H16.676zm53.635 0 11.947 11.945a9.179 9.179 0 0 1 9.502 2.184A9.195 9.195 0 0 1 94.426 60h25.566a7.73 7.73 0 0 0-2.256-5.348v.004L103.08 40H70.31zm-5.965 4.727V60h11.77a9.196 9.196 0 0 1 .636-2.87L64.346 44.728z"
		style="fill:#fff683;fill-opacity:1"
	/><path
		d="M36.678 20 16.676 40h35.572a9.195 9.195 0 0 1-.453-7.904L39.7 20h-3.023zm13.713 0 6.943 6.943a9.175 9.175 0 0 1 11.623 11.703L70.311 40h32.767l-20-20H50.391z"
		style="fill:#ffc783;fill-opacity:1"
	/><path
		d="M59.879 0a7.728 7.728 0 0 0-5.465 2.264l-10.879 10.88L50.391 20h32.687L65.342 2.264A7.728 7.728 0 0 0 59.879 0zm-21.69 18.488L36.678 20H39.7l-1.512-1.512z"
		style="fill:#fe9494;fill-opacity:1"
	/>
</svg>