<svg xmlns="http://www.w3.org/2000/svg" xml:space="preserve" viewBox="0 0 128 128"><path fill="#2f2f2f" d="M74.92 113.83s-5.7-.45-5.93-3.79l-3.24-9.41 14.09-13.1s10.33-.2 10.92-.2c.6 0 3.37 13.3 3.37 13.3l-4.96 8.14z"/><path fill="#f79329" d="M75.03 53.73c.31 2.76.9 5.17 2.83 7.2 1.55 1.62 3.17 3 4.6 4.73 4.12 4.99 11.06 6.71 15.32 11.94 2.84 3.49 4.77 7.77 5.75 12.11 1.1 4.88 1.78 10.27.42 15.07-1.87 6.58-7.62 7.38-13.63 8.29-2.76.42-5.57.66-8.37.74-2.23.06-4.81.34-7.04.03-1.95-.28-2.32-2.92-1.79-4.47.56-1.67 2.24-2.3 3.81-2.6.77-.15 1.58.07 2.36-.06 1.45-.23 2.06-1.18 2.09-2.63.03-1.98.71-3.63 1.62-5.36.41-.78 1.1-1.47 1.76-2.06.67-.62 1.83-1.47 1.19-2.55-1.1-1.88-4.44-.15-5.57.66-1.75 1.24-2.99 3.12-3.53 5.19-.77 2.87-1.36 3.06-4.04 4.08-1.58.61-3.04 1.62-3.64 3.19-.73 1.95.49 4.25-.77 5.95-.99 1.36-2.91 2.11-4.67 2.04-4.54-.2-7.58-1.31-6.63-5.93.6-2.9.41-6.08.59-9.09.06-1.13.17-2.86-.96-3.65-.44-.32-1.05-.37-1.56-.34-.35.01-1.23-.04-1.56.07-.97.31-.74 1.87-.73 2.69.01 1.58-.02 3.19-.06 4.75-.04 1.85.16 3.68.18 5.51.01 1.2.12 2.68-.87 3.53-1.13 1-2.86 1.22-4.4 1.27-1.85.07-3.96-.07-5.5-1.15-3.15-2.22-2.08-7.31-1.79-10.28.19-1.93.05-3.94 0-5.92-.04-1.78-.09-3.57-.13-5.37-.02-.74-.12-1.54-.08-2.3.15-2.1-.28-4.25-.34-6.43-.1-4-.31-8.07-.31-12.14 0-1.74.3-3.65.8-5.3.27-.88.56-2.06 1.03-2.83.74-1.23 2.02-2.33 3.09-3.29 1.38-1.23 3.02-1.85 4.6-2.8 2.05-1.24 4.19-2.41 6.41-3.36 3.9-1.66 8.07-3.08 12.43-3.24 1.53-.06 2.68-.3 4.16-.64 1.49-.34 2.23.66 2.5 2.06.23.87.33 1.78.43 2.69zM59.13 24.93s-2.13-2.61-7.09-9.78C48.98 10.71 39.33-1.79 34.45.8c-7.53 3.98-6.69 32.18-6.69 32.18ZM62.29 25.27s2.63-2.1 8.97-8.1c3.93-3.7 15.96-13.91 20.2-10.38 6.54 5.46-.15 32.87-.15 32.87z"/><path fill="#f79329" d="M95.31 51.88c.33-8.71-3.73-18.15-10.88-24.49-5.78-5.14-14.36-8.35-22.99-9.24-8.63-.92-17.68.44-24.4 4.25-8.32 4.72-14.24 13.1-15.74 21.7-1.42 8.16-.62 16.61 6.43 23.13 3.91 3.61 8.96 6.32 14.28 8.05 2.02.66 7.26 2.25 12.85 2.84 5.61.59 11.57.18 13.69-.05 5.56-.59 11.07-2.18 15.64-4.89 8.27-4.92 10.81-13.02 11.12-21.3ZM97.64 99.25c1.22-.81 2.5-.45 3.86-.29 5.86.68 12.5 5.82 12.74 11.94.29 7.86-6.7 13.54-13.66 15.41-5.07 1.36-10.56 1.36-15.78 1.15-2.28-.09-6.4.29-8.41-.99-.72-.45-1.35-1.39-1.68-2.16-1.21-2.81 1.23-4.77 3.84-4.76 1.9.01 3.8.04 5.71.02 4.16-.03 8.34.28 12.45-.54 3.74-.74 9.22-3.67 8.99-8.23-.17-3.35-3.89-4.01-6.57-4.41-.68-.1-1.35-.32-2.13-.34-1.53-.04-1.46-1.48-1.35-2.6.16-1.59.41-2.92 1.74-4.01.05-.06.15-.13.25-.19z"/><path fill="#f79329" d="M23.75 49.72c-.1 0-.2-.01-.3-.03l-8.22-1.61c-.84-.16-1.39-.98-1.22-1.82.16-.84 1-1.4 1.82-1.22l8.22 1.62c.84.16 1.39.98 1.22 1.81-.15.73-.8 1.25-1.52 1.25zM15.3 56.02c-.77 0-1.43-.57-1.53-1.35-.12-.85.48-1.62 1.33-1.74l8.31-1.09c.83-.12 1.62.48 1.74 1.33.11.85-.49 1.63-1.33 1.74L15.51 56c-.07.02-.13.02-.21.02zM17.75 63.02c-.67 0-1.29-.44-1.49-1.13-.24-.82.24-1.67 1.07-1.91l8.05-2.3c.82-.23 1.68.24 1.92 1.07.23.82-.24 1.68-1.07 1.91l-8.05 2.3c-.15.04-.29.06-.43.06zM91.71 55.71c-.78 0-1.45-.59-1.54-1.38-.09-.85.52-1.62 1.37-1.71l8.33-.93c.83-.07 1.62.52 1.71 1.37.1.86-.52 1.62-1.37 1.71l-8.33.93c-.06 0-.12.01-.17.01zM99.59 62.7c-.11 0-.22-.01-.34-.04l-8.18-1.79c-.83-.18-1.36-1.01-1.18-1.84.19-.83 1.01-1.36 1.84-1.18l8.19 1.79c.83.18 1.37 1.01 1.18 1.84-.15.72-.8 1.22-1.51 1.22zM96.58 69.46c-.18 0-.37-.03-.55-.1L88.2 66.4c-.8-.3-1.21-1.2-.9-2 .3-.8 1.2-1.2 2-.9l7.84 2.96c.8.31 1.2 1.2.9 2-.24.62-.83 1-1.46 1z"/><path fill="#fcd4b5" d="M36 12.52c-.73 1.9-2.2 7.37-1.28 11.26.27 1.16 1.75 1.68 2.8 1.18 2.19-1.05 5.61-2.9 6.89-3.54 2.18-1.07 2.93-2.4 1.75-4.03-1.5-2.08-5.24-6.39-7.45-6.81-1.26-.24-2.23.71-2.71 1.94ZM87.6 17.78c.41 2 .93 7.63-.63 11.33-.46 1.09-2.01 1.36-2.96.69-1.98-1.4-5.03-3.8-6.2-4.64-1.96-1.42-2.49-2.86-1.05-4.27 1.82-1.8 6.23-5.43 8.48-5.47 1.29-.03 2.1 1.07 2.36 2.36z"/><path fill="#2f2f2f" d="M60.1414 67.7302c-.193 0-.386-.03-.5791-.0919-3.2988-1.0702-6.7757-1.0702-10.0744 0-.9822.3168-2.0411-.2192-2.3617-1.2033-.3205-.984.2193-2.041 1.2052-2.3616 4.0523-1.3157 8.335-1.3157 12.3873 0 .984.3205 1.5238 1.3776 1.2052 2.3616-.2568.7891-.9915 1.2952-1.7825 1.2952z"/><path fill="#fff" d="M77.6455 39.743c-1.6924 5.145-6.5319 8.8374-12.1717 8.8374-.2699 0-.5417-.0094-.8153-.0262-2.7684-.1743-5.3268-1.2277-7.4035-2.969.0675.9279.1424 1.8688.2549 2.8865.2849 2.6015 1.6569 4.652 3.966 5.9284 1.537.851 3.3738 1.2896 5.2724 1.4095 3.25.2043 6.6913-.5248 9.1335-1.7037 2.581-1.2464 4.2584-3.49 4.6033-6.1571.343-2.6522-.6635-5.4805-2.8396-8.2057z"/><path fill="#65471b" d="M60.8068 31.3368c-2.431 1.0309-3.6493 4.3128-3.7055 9.9132l.073.1275c1.6813 2.4722 4.4478 4.1684 7.6623 4.3708.2136.0132.4273.0207.639.0207 4.937 0 9.0886-3.6306 9.8458-8.4794-.2155-.1968-.4142-.3973-.6429-.5923-6.963-5.9415-12.1211-6.1046-13.8717-5.3605Z"/><path fill="#f4900c" d="M65.4738 48.5804c5.6398 0 10.4793-3.6924 12.1717-8.8373-.6635-.8303-1.445-1.6494-2.326-2.4535-.7572 4.8488-4.9088 8.4794-9.8457 8.4794-.2118 0-.4255-.0075-.6391-.0207-3.2145-.2024-5.981-1.8986-7.6622-4.3708l-.073-.1275c-.0132 1.3139.0393 2.7609.1555 4.3353 2.0767 1.7412 4.6351 2.7946 7.4035 2.9689.2736.0187.5454.0262.8153.0262z"/><circle cx="60.923" cy="37.1884" r="2.0749" fill="#fff"/><path fill="#fff" d="M43.5782 48.5804c-5.6398 0-10.4793-3.6924-12.1717-8.8373-2.1761 2.7252-3.1807 5.5535-2.8396 8.2038.3467 2.6671 2.0224 4.9126 4.6033 6.157 2.4422 1.179 5.8815 1.9081 9.1335 1.7038 1.8986-.12 3.7354-.5566 5.2724-1.4094 2.3072-1.2764 3.6792-3.327 3.966-5.9285.1125-1.0158.1874-1.953.255-2.8789-2.0674 1.73-4.6296 2.787-7.4036 2.9614a10.8368 10.8368 0 0 1-.8153.0281z"/><path fill="#65471b" d="M43.5782 45.769c.2118 0 .4255-.0075.6391-.0207 3.2145-.2024 5.981-1.8986 7.6622-4.3708l.073-.1275c-.058-5.6004-1.2744-8.8823-3.7054-9.9132-1.7506-.744-6.9106-.581-13.8717 5.3586-.2287.195-.4255.3955-.643.5923.7573 4.8507 4.9089 8.4813 9.8458 8.4813z"/><path fill="#f4900c" d="m51.9507 41.25-.073.1275c-1.6813 2.4722-4.4478 4.1684-7.6623 4.3708a10.4452 10.4452 0 0 1-.639.0207c-4.937 0-9.0886-3.6306-9.8458-8.4794-.881.804-1.6625 1.6232-2.326 2.4535 1.6925 5.145 6.532 8.8373 12.1717 8.8373.27 0 .5417-.0094.8153-.0262 2.774-.1743 5.3362-1.2314 7.4035-2.9614.1162-1.5763.1706-3.0251.1556-4.3428z"/><path fill="#fff" d="M39.121 39.2595c1.1434-.0712 2.013-1.0571 1.94-2.2004-.0712-1.1434-1.0571-2.013-2.2004-1.9418-1.1434.0712-2.013 1.0571-1.9418 2.2004.073 1.1433 1.059 2.013 2.2023 1.9418z"/></svg>