<svg xmlns="http://www.w3.org/2000/svg" viewBox="0 0 16 16" xml:space="preserve" style="background-color:white"><defs><linearGradient id="b"><stop stop-opacity=".5"/><stop offset="1"/></linearGradient><clipPath id="a"><path d="M0 0v9.471191c.343357-.144256.633638-.452607.882813-.95166.281575-.563946.481548-1.34978.585937-2.240234.010813-.09224.02884-.284009.03125-.308594V.5l3.75 5h1.441406L9.298828.283203l.197266 1.658203s.766914 6.448685.998047 7.984375l.005859.03711V10c.000725.665858-.364069 1.20979-.824219 1.554688-.46015.344895-1.014673.542892-1.552734.677734-.69102.173175-.966216.150485-1.363281.171875L8.558594 16H16V0Z"/></clipPath></defs><path d="M8 2c-.666665 0-1.333333.25-2 .5v6c.666667-.25 1.333335-.5 2-.5 1.166664 0 2.666669 1 4 1 .999998 0 2.000002-.5625 3-.84375V16h1V2c-1.333331 0-2.666669 1-4 1-1.333331 0-2.833336-1-4-1z" clip-path="url(#a)" fill="url(#b)"/><path d="M0 10c1.14576-.326815 1.747299-1.805352 1.96491-3.6616C1.97798 6.226905 2 6 2 6V2l3 4h2l2-4s.762495 6.422527 1 8c.0022 1.994603-4 2-4 2l2 4H0Z"/></svg>
