<svg xmlns="http://www.w3.org/2000/svg" viewBox="0 0 16 16" xml:space="preserve"><defs><clipPath clipPathUnits="userSpaceOnUse" id="a"><path stroke-width="22.7766" stroke-linecap="square" paint-order="markers stroke fill" d="M0 0h16v16H0z"/></clipPath></defs><g clip-path="url(#a)" paint-order="stroke markers fill"><path style="-inkscape-stroke:none" d="M7.5 1.5c-.791664 0-1.509115.28125-2.175781.53125L5 2.154297v7.066406l.675781-.251953C6.342447 8.71875 6.958336 8.5 7.5 8.5c.440474 0 1.07703.219595 1.767578.470703C9.958126 9.221811 10.708336 9.5 11.5 9.5c.946943 0 1.73073-.401026 2.5-.6875V16.5h2v-15h-.5c-.791664 0-1.509116.28125-2.175781.53125-.666667.25-1.282555.46875-1.824219.46875-.541664 0-1.208128-.221812-1.892578-.470703C8.922972 1.780406 8.226188 1.5 7.5 1.5Zm0 .5c1.166663 0 2.66667 1 4 1 1.33333 0 2.66667-1 4-1v14h-1V8.15625C13.500003 8.4375 12.499997 9 11.5 9c-1.33333 0-2.833337-1-4-1-.666664 0-1.333334.25-2 .5v-6c.666666-.25 1.333336-.5 2-.5Z" color="#000" fill="#fff"/><path style="-inkscape-stroke:none" d="M7.5 2c-.666665 0-1.333333.25-2 .5v6c.666667-.25 1.333335-.5 2-.5 1.166664 0 2.666669 1 4 1 .999998 0 2.000002-.5625 3-.84375V16h1V2c-1.333331 0-2.666669 1-4 1-1.333331 0-2.833336-1-4-1z" color="#000"/><path d="M0 10c1.14576-.326815 1.747299-1.805352 1.96491-3.6616C1.97798 6.226905 2 6 2 6V2l3 4h2l2-4s.762495 6.422527 1 8c.0022 1.994603-4 2-4 2l2 4H0Z" stroke="#fff"/></g></svg>