<svg xmlns="http://www.w3.org/2000/svg" viewBox="0 0 16 16"><g clip-path="url(#a)"><path fill="#000" stroke="#fff" stroke-width=".5" d="m5.412 2.266-.162.06V8.86l.338-.126C6.264 8.48 6.887 8.25 7.5 8.25c.519 0 1.124.22 1.811.47l.041.015c.68.247 1.43.515 2.148.515.544 0 1.077-.153 1.583-.33.178-.063.35-.128.518-.19.22-.083.434-.164.649-.235v7.755h1.5V1.75h-.25c-.712 0-1.415.264-2.066.508l-.022.008c-.676.254-1.299.484-1.912.484-.615 0-1.281-.232-1.977-.485l-.09-.032C8.79 1.998 8.11 1.75 7.5 1.75c-.712 0-1.415.264-2.066.508l-.022.008Z"/><path fill="#fff" d="M0 16h8.559l-1.8-3.596c.072-.004.14-.006.206-.008.304-.011.591-.022 1.158-.164.538-.134 1.093-.332 1.553-.677.46-.345.825-.89.824-1.555v-.037l-.006-.037c-.231-1.536-.998-7.985-.998-7.985L9.3.283 6.69 5.5H5.25L1.5.5v5.47l-.002.021c-.005.058-.02.21-.03.288-.104.89-.304 1.677-.585 2.24-.25.5-.54.808-.883.952V16Z"/><path fill="#000" d="M0 10c1.146-.327 1.747-1.805 1.965-3.662C1.978 6.227 2 6 2 6V2l3 4h2l2-4s.762 6.423 1 8c.002 1.995-4 2-4 2l2 4H0v-6Z"/></g><defs><clipPath id="a"><path fill="#fff" d="M0 0h16v16H0z"/></clipPath></defs></svg>