<?xml version="1.0" standalone="no"?>
<!DOCTYPE svg PUBLIC "-//W3C//DTD SVG 20010904//EN"
 "http://www.w3.org/TR/2001/REC-SVG-20010904/DTD/svg10.dtd">
<svg version="1.0" xmlns="http://www.w3.org/2000/svg"
 width="700.000000pt" height="700.000000pt" viewBox="0 0 700.000000 700.000000"
 preserveAspectRatio="xMidYMid meet">
<g transform="translate(0.000000,700.000000) scale(0.100000,-0.100000)"
fill="#000000" stroke="none">
<path d="M3030 6100 c-155 -30 -299 -75 -592 -182 l-28 -10 0 -659 0 -659 258
0 257 0 368 736 c202 405 367 737 365 739 -2 1 -46 13 -98 25 -134 33 -393 37
-530 10z"/>
<path d="M3497 5245 l-437 -875 -434 0 -434 0 -652 870 c-359 479 -656 870
-661 870 -4 0 -10 -426 -12 -947 l-3 -948 -26 -155 c-88 -512 -200 -835 -377
-1087 -104 -148 -260 -276 -396 -324 l-65 -24 0 -1312 0 -1313 1750 0 1750 0
-435 870 c-239 478 -435 872 -435 874 0 2 55 6 123 10 803 45 1378 264 1549
592 72 137 82 228 49 456 -46 311 -153 1163 -321 2553 -50 413 -91 753 -93
758 -1 4 -199 -387 -440 -868z"/>
<path d="M6530 6100 c-143 -27 -311 -79 -586 -180 -403 -149 -535 -189 -712
-215 -257 -39 -520 -1 -901 130 -73 25 -136 44 -138 41 -7 -7 319 -2688 331
-2721 4 -11 161 -51 296 -76 36 -7 130 -12 210 -12 235 -1 398 39 845 203 219
80 448 160 460 160 3 0 5 -772 5 -1715 l0 -1715 220 0 220 0 0 3060 0 3060
-77 -1 c-43 0 -121 -9 -173 -19z"/>
</g>
</svg>
