<?xml version="1.0" encoding="UTF-8" standalone="no"?>
<!-- Created with Inkscape (http://www.inkscape.org/) -->

<svg
   width="100"
   height="100"
   viewBox="0 0 26.458333 26.458333"
   version="1.1"
   id="svg5"
   xmlns="http://www.w3.org/2000/svg"
   xmlns:svg="http://www.w3.org/2000/svg">
  <defs
     id="defs2" />
  <g
     id="g2244"
     transform="matrix(1,0,0,0.79999745,1.6666664e-8,2.6458671)">
    <path
       d="m 15.987332,24.328702 q -1.698289,0 -2.972007,-0.636859 -1.273717,-0.636859 -2.062209,-1.789269 l -0.424572,2.062208 H 7.0713113 V 2.1296315 h 3.8818047 v 8.9463465 q 0.727838,-1.000778 1.910576,-1.7589425 1.213064,-0.758165 3.12364,-0.758165 2.122862,0 3.790825,1.0311044 1.667963,1.0311041 2.638414,2.8203731 0.970451,1.78927 0.970451,4.063764 0,2.274495 -0.970451,4.063765 -0.970451,1.758942 -2.638414,2.790047 -1.667963,1.000778 -3.790825,1.000778 z m -0.818818,-3.396579 q 1.849922,0 3.062986,-1.243391 1.213064,-1.243391 1.213064,-3.21462 0,-1.971228 -1.213064,-3.244946 -1.213064,-1.273717 -3.062986,-1.273717 -1.880249,0 -3.093314,1.273717 -1.182737,1.243391 -1.182737,3.21462 0,1.971229 1.182737,3.244946 1.213065,1.243391 3.093314,1.243391 z"
       id="path1031"
       style="font-weight:bold;font-size:30.3266px;font-family:'DM Sans';-inkscape-font-specification:'DM Sans Bold';fill:#12d3ff;fill-opacity:1;stroke-width:2.52722" />
    <path
       d="m 11.987332,24.328702 q -1.698289,0 -2.972007,-0.636859 -1.2737167,-0.636859 -2.0622087,-1.789269 l -0.424572,2.062208 H 3.0713113 V 2.1296315 h 3.881805 V 11.075978 Q 7.6809543,10.0752 8.863692,9.3170355 q 1.213064,-0.758165 3.12364,-0.758165 2.122862,0 3.790825,1.0311044 1.667963,1.0311041 2.638414,2.8203731 0.970451,1.78927 0.970451,4.063764 0,2.274495 -0.970451,4.063765 -0.970451,1.758942 -2.638414,2.790047 -1.667963,1.000778 -3.790825,1.000778 z m -0.818818,-3.396579 q 1.849922,0 3.062986,-1.243391 1.213064,-1.243391 1.213064,-3.21462 0,-1.971228 -1.213064,-3.244946 -1.213064,-1.273717 -3.062986,-1.273717 -1.880249,0 -3.093314,1.273717 -1.1827367,1.243391 -1.1827367,3.21462 0,1.971229 1.1827367,3.244946 1.213065,1.243391 3.093314,1.243391 z"
       id="path1004-3"
       style="font-weight:bold;font-size:30.3266px;font-family:'DM Sans';-inkscape-font-specification:'DM Sans Bold';fill:#ff4343;fill-opacity:1;stroke-width:2.52722" />
    <path
       d="m 13.987332,24.328702 q -1.698289,0 -2.972007,-0.636859 Q 9.7416076,23.054984 8.953116,21.902574 L 8.5285437,23.964782 H 5.0713114 V 2.1296313 H 8.953116 v 8.9463467 q 0.7278384,-1.000778 1.910576,-1.7589427 1.213064,-0.758165 3.12364,-0.758165 2.122862,0 3.790825,1.0311044 1.667963,1.0311043 2.638414,2.8203733 0.970451,1.78927 0.970451,4.063764 0,2.274495 -0.970451,4.063765 -0.970451,1.758942 -2.638414,2.790047 -1.667963,1.000778 -3.790825,1.000778 z m -0.818818,-3.396579 q 1.849922,0 3.062986,-1.243391 1.213064,-1.243391 1.213064,-3.21462 0,-1.971228 -1.213064,-3.244946 -1.213064,-1.273717 -3.062986,-1.273717 -1.880249,0 -3.093314,1.273717 -1.1827372,1.243391 -1.1827372,3.21462 0,1.971229 1.1827372,3.244946 1.213065,1.243391 3.093314,1.243391 z"
       id="path1004"
       style="font-weight:bold;font-size:30.3266px;font-family:'DM Sans';-inkscape-font-specification:'DM Sans Bold';fill:#ffffff;stroke-width:2.52722" />
  </g>
</svg>
